<?xml version="1.0" encoding="UTF-8"?>
<svg id="Layer_1" xmlns="http://www.w3.org/2000/svg" version="1.1" viewBox="0 0 800 800">
  <!-- Generator: Adobe Illustrator 29.6.1, SVG Export Plug-In . SVG Version: 2.1.1 Build 9)  -->
  <defs>
    <style>
      .st0 {
        fill: #ff9000;
      }
    </style>
  </defs>
  <g>
    <path class="st0" d="M211.15,434.42l159.39,159.34,335.11-335.14-159.32-159.35L211.15,434.42ZM584.12,220.82c11.07,11.09,11.07,29.06,0,40.14l-194.07,194.01c-5.53,5.56-12.79,8.32-20.03,8.32s-14.55-2.75-20.08-8.32c-11.09-11.09-11.09-29.05,0-40.13l194.04-194.02c11.07-11.09,29.05-11.09,40.13,0Z"/>
    <polygon class="st0" points="138.2 664.42 315.28 618.84 185.59 489.15 138.2 664.42"/>
    <path class="st0" d="M770.29,110.18l-75.54-75.57c-22.4-22.38-61.47-22.36-83.78,0l-24.55,24.55,159.38,159.33,24.49-24.51c23.06-23.12,23.06-60.72,0-83.81Z"/>
  </g>
  <path class="st0" d="M699.65,787.29H30.43c-16.11,0-29.17-13.06-29.17-29.18V48.46c0-16.11,13.05-29.17,29.17-29.17h449.35c16.13,0,29.16,13.05,29.16,29.17s-13.03,29.17-29.16,29.17H59.6v651.31h640.05c22.79,0,41.33-18.53,41.33-41.33v-365.95c0-16.11,13.05-29.17,29.16-29.17s29.17,13.05,29.17,29.17v365.95c0,54.96-44.7,99.68-99.66,99.68Z"/>
</svg>